<?xml version="1.0" encoding="utf-8"?>
<!-- Generator: Adobe Illustrator 19.0.0, SVG Export Plug-In . SVG Version: 6.00 Build 0)  -->
<svg version="1.1" id="Layer_1" xmlns="http://www.w3.org/2000/svg" xmlns:xlink="http://www.w3.org/1999/xlink" x="0px" y="0px"
	 viewBox="0 0 569.7 162.5" style="enable-background:new 0 0 569.7 162.5;" xml:space="preserve">
<style type="text/css">
	.st0{fill:none;}
	.st1{fill-rule:evenodd;clip-rule:evenodd;fill:none;}
	.st2{fill:#2D577C;}
	.st3{fill:#AF222F;}
	.st4{fill-rule:evenodd;clip-rule:evenodd;fill:#AF222F;}
	.st5{fill-rule:evenodd;clip-rule:evenodd;fill:#2D577C;}
	.st6{fill:#2F587C;}
</style>
<rect x="-196.9" y="-190.8" class="st0" width="963.5" height="540"/>
<rect x="-196.9" y="-190.8" class="st1" width="960" height="540"/>
<g>
	<g>
		<g>
			<path class="st2" d="M1.4,115.5V56.5c0-5.4,1.9-10,5.8-13.8c3.8-3.9,8.5-5.8,13.9-5.8h2.5c5.4,0,10,1.9,13.8,5.8
				c1.3,1.2,2.4,2.6,3.2,4h0.1l24.6,49.1l24.6-49.1h0.1c0.9-1.4,1.9-2.8,3.2-4c3.8-3.9,8.5-5.8,13.9-5.8h2.5c5.4,0,10,1.9,13.8,5.8
				c3.9,3.8,5.8,8.4,5.8,13.8v58.9h-19.6V66.3c0-1.3-0.5-2.5-1.5-3.5c-0.7-0.7-1.4-1.1-2.2-1.3c-0.7,0.2-1.3,0.4-1.8,0.8l-26.5,53
				H53l-26.6-53c-0.5-0.4-1.1-0.7-1.7-0.8c-0.9,0.2-1.6,0.6-2.3,1.3c-0.9,1-1.4,2.1-1.4,3.5v49.1H1.4z"/>
			<path class="st3" d="M139,115.5l34.4-68.8h0.1c0.9-1.4,1.9-2.8,3.2-4c3.8-3.9,8.5-5.8,13.9-5.8h4.9c5.4,0,10,1.9,13.8,5.8
				c1.3,1.2,2.3,2.6,3.2,4h0.2l34.4,68.8h-24.6l-7.4-14.7h-44.2l-7.4,14.7H139z M207.8,86l-12.8-25.6c-0.6-0.5-1.3-0.9-1.9-1.3
				c-0.7,0.4-1.4,0.8-2,1.3L178.3,86H207.8z"/>
			<path class="st3" d="M256.9,115.5V36.9h78.6c5.4,0,10,1.9,13.8,5.8c3.9,3.8,5.8,8.4,5.8,13.8v39.3c0,5.5-1.9,10.1-5.8,13.9
				c-3.8,3.8-8.4,5.8-13.8,5.8H256.9z M325.6,95.8c2.7,0,5-0.9,6.9-2.8c1.9-1.9,2.9-4.3,2.9-7V66.3c0-2.7-1-5-2.9-6.9
				c-1.9-1.9-4.2-2.9-6.9-2.9h-49.1v39.3H325.6z"/>
			<path class="st3" d="M389.5,115.5c-5.5,0-10.1-1.9-13.9-5.8c-3.8-3.8-5.8-8.5-5.8-13.9V36.9h19.6V86c0,2.7,0.9,5,2.8,7
				c1.9,1.9,4.3,2.8,7,2.8h58.9v19.6H389.5z"/>
		</g>
		<path class="st4" d="M532.1,28.4c4-0.1,8,0.1,12,1.3c7.5,2.3,12.5,7.3,14.7,14.8c1.2,4.2,0.7,8.4-0.5,12.5
			c-2.1,7-5.9,13-10.5,18.6c-10.6,13-23.5,23.2-38.1,31.4c-4.8,2.7-9.7,5.1-15,6.7c-2.4,0.7-5,1.3-7.5,1.4c-5.3,0.3-9-2.2-11.3-6.9
			c-1.8-3.6-2.5-7.5-3-11.4c-0.2-1.3-0.3-2.6-0.4-3.9c-0.1-0.7,0.1-1.1,0.9-1c7.4,0.4,14.3-1.5,20.9-4.4c12-5.2,22.2-12.8,31.1-22.3
			c4-4.2,7.5-8.8,9.9-14.1c1.3-2.8,2.3-5.8,2.3-8.9c-1.1-23.1-39.2-3.7-38.3-4.3c5.1-3.3,10.6-5.8,16.4-7.4
			C521.1,29,526.5,28.2,532.1,28.4z"/>
		<polygon class="st4" points="477.8,57.7 531.4,115.4 569.4,115.4 		"/>
		<polygon class="st5" points="410.5,0 440.5,70.2 455.9,41.5 488.9,27.8 		"/>
	</g>
	<g>
		<path class="st6" d="M0,154.5l1.6-3.6c1.7,1.3,4.3,2.1,6.8,2.1c2.8,0,4-0.9,4-2.2c0-3.9-12-1.2-12-8.8c0-3.5,2.8-6.4,8.7-6.4
			c2.6,0,5.2,0.6,7.1,1.8l-1.5,3.6c-1.9-1.1-3.9-1.6-5.7-1.6c-2.8,0-3.9,1.1-3.9,2.3c0,3.8,12,1.2,12,8.7c0,3.4-2.8,6.4-8.7,6.4
			C5.1,156.9,1.8,156,0,154.5z"/>
		<path class="st6" d="M36,150h-12c0.4,2,2.1,3.2,4.5,3.2c1.7,0,2.9-0.5,4-1.5l2.4,2.6c-1.5,1.7-3.7,2.6-6.5,2.6c-5.5,0-9-3.4-9-8.1
			c0-4.7,3.6-8.1,8.4-8.1c4.6,0,8.2,3.1,8.2,8.2C36.1,149.1,36.1,149.6,36,150z M24,147.3h7.8c-0.3-2-1.8-3.3-3.9-3.3
			C25.8,144,24.3,145.3,24,147.3z"/>
		<path class="st6" d="M50,155.8c-0.9,0.7-2.3,1-3.7,1c-3.7,0-5.9-1.9-5.9-5.7v-6.5h-2.4v-3.5h2.4v-3.8h4.6v3.8h3.9v3.5h-3.9v6.4
			c0,1.4,0.7,2.1,2,2.1c0.7,0,1.4-0.2,1.9-0.6L50,155.8z"/>
		<path class="st6" d="M63,155.8c-0.9,0.7-2.3,1-3.7,1c-3.7,0-5.9-1.9-5.9-5.7v-6.5h-2.4v-3.5h2.4v-3.8h4.6v3.8h3.9v3.5h-3.9v6.4
			c0,1.4,0.7,2.1,2,2.1c0.7,0,1.4-0.2,1.9-0.6L63,155.8z"/>
		<path class="st6" d="M65.6,136c0-1.4,1.1-2.6,2.8-2.6c1.7,0,2.8,1.1,2.8,2.5c0,1.5-1.1,2.6-2.8,2.6
			C66.7,138.6,65.6,137.5,65.6,136z M66.2,140.8h4.6v15.8h-4.6V140.8z"/>
		<path class="st6" d="M91.7,147.5v9h-4.6v-8.3c0-2.6-1.2-3.7-3.2-3.7c-2.2,0-3.8,1.4-3.8,4.3v7.8h-4.6v-15.8H80v1.9
			c1.2-1.4,3.1-2.1,5.2-2.1C88.9,140.5,91.7,142.7,91.7,147.5z"/>
		<path class="st6" d="M113,140.8v13.2c0,5.9-3.2,8.6-8.9,8.6c-3,0-5.9-0.7-7.8-2.2l1.8-3.3c1.4,1.1,3.6,1.8,5.6,1.8
			c3.2,0,4.6-1.5,4.6-4.3v-0.7c-1.2,1.3-2.9,2-5,2c-4.4,0-7.9-3-7.9-7.6c0-4.6,3.5-7.6,7.9-7.6c2.2,0,4,0.7,5.2,2.3v-2H113z
			 M108.4,148.2c0-2.3-1.7-3.9-4.1-3.9c-2.4,0-4.2,1.6-4.2,3.9c0,2.3,1.8,3.9,4.2,3.9C106.7,152.1,108.4,150.5,108.4,148.2z"/>
		<path class="st6" d="M131.7,141.1h4.1v3.5h-3.9v11.9h-4.6v-11.9h-2.4v-3.5h2.4v-0.7c0-3.6,2.2-5.9,6.1-5.9c1.3,0,2.6,0.3,3.5,0.9
			l-1.2,3.3c-0.5-0.4-1.1-0.6-1.9-0.6c-1.4,0-2.1,0.7-2.1,2.3V141.1z"/>
		<path class="st6" d="M137.3,148.7c0-4.8,3.7-8.1,8.7-8.1c5,0,8.7,3.4,8.7,8.1c0,4.8-3.6,8.1-8.7,8.1
			C141,156.8,137.3,153.4,137.3,148.7z M150,148.7c0-2.7-1.7-4.4-4-4.4c-2.3,0-4.1,1.6-4.1,4.4c0,2.7,1.8,4.4,4.1,4.4
			C148.3,153.1,150,151.4,150,148.7z"/>
		<path class="st6" d="M174.2,140.8v15.8h-4.3v-1.9c-1.2,1.4-3,2.1-4.9,2.1c-4,0-6.8-2.2-6.8-7.1v-8.9h4.6v8.3
			c0,2.6,1.2,3.8,3.2,3.8c2.1,0,3.6-1.3,3.6-4.3v-7.8H174.2z"/>
		<path class="st6" d="M195.2,147.5v9h-4.6v-8.3c0-2.6-1.2-3.7-3.2-3.7c-2.2,0-3.8,1.4-3.8,4.3v7.8h-4.6v-15.8h4.4v1.9
			c1.2-1.4,3.1-2.1,5.2-2.1C192.4,140.5,195.2,142.7,195.2,147.5z"/>
		<path class="st6" d="M216.3,134.8v21.8h-4.4v-1.8c-1.1,1.4-2.8,2.1-4.9,2.1c-4.5,0-7.9-3.2-7.9-8.1c0-5,3.4-8.1,7.9-8.1
			c1.9,0,3.6,0.6,4.7,1.9v-7.7H216.3z M211.8,148.7c0-2.7-1.8-4.4-4-4.4c-2.3,0-4.1,1.6-4.1,4.4c0,2.7,1.8,4.4,4.1,4.4
			C210,153.1,211.8,151.4,211.8,148.7z"/>
		<path class="st6" d="M235.1,147.6v9h-4.3v-2c-0.9,1.4-2.5,2.2-4.8,2.2c-3.7,0-5.9-2.1-5.9-4.8c0-2.8,2-4.7,6.8-4.7h3.6
			c0-2-1.2-3.1-3.6-3.1c-1.7,0-3.4,0.6-4.6,1.5l-1.6-3.2c1.7-1.2,4.3-1.9,6.8-1.9C232.3,140.5,235.1,142.8,235.1,147.6z
			 M230.5,151.6V150h-3.1c-2.1,0-2.8,0.8-2.8,1.9c0,1.1,1,1.9,2.6,1.9C228.6,153.7,230,153,230.5,151.6z"/>
		<path class="st6" d="M250,155.8c-0.9,0.7-2.3,1-3.7,1c-3.7,0-5.9-1.9-5.9-5.7v-6.5h-2.4v-3.5h2.4v-3.8h4.6v3.8h3.9v3.5h-3.9v6.4
			c0,1.4,0.7,2.1,2,2.1c0.7,0,1.4-0.2,1.9-0.6L250,155.8z"/>
		<path class="st6" d="M252.6,136c0-1.4,1.1-2.6,2.9-2.6c1.7,0,2.9,1.1,2.9,2.5c0,1.5-1.1,2.6-2.9,2.6
			C253.8,138.6,252.6,137.5,252.6,136z M253.2,140.8h4.6v15.8h-4.6V140.8z"/>
		<path class="st6" d="M261.4,148.7c0-4.8,3.7-8.1,8.7-8.1c5,0,8.7,3.4,8.7,8.1c0,4.8-3.6,8.1-8.7,8.1
			C265.1,156.8,261.4,153.4,261.4,148.7z M274.2,148.7c0-2.7-1.7-4.4-4-4.4c-2.3,0-4.1,1.6-4.1,4.4c0,2.7,1.8,4.4,4.1,4.4
			C272.4,153.1,274.2,151.4,274.2,148.7z"/>
		<path class="st6" d="M298.6,147.5v9H294v-8.3c0-2.6-1.2-3.7-3.2-3.7c-2.2,0-3.8,1.4-3.8,4.3v7.8h-4.6v-15.8h4.4v1.9
			c1.2-1.4,3.1-2.1,5.2-2.1C295.8,140.5,298.6,142.7,298.6,147.5z"/>
		<path class="st6" d="M301.8,155.1l1.5-3.3c1.4,0.9,3.6,1.5,5.5,1.5c2.1,0,2.9-0.6,2.9-1.4c0-2.6-9.5,0.1-9.5-6.3
			c0-3,2.7-5.1,7.3-5.1c2.2,0,4.6,0.5,6.1,1.4l-1.5,3.3c-1.6-0.9-3.1-1.2-4.6-1.2c-2.1,0-2.9,0.6-2.9,1.5c0,2.7,9.5,0.1,9.5,6.3
			c0,2.9-2.7,5-7.5,5C306,156.8,303.3,156.1,301.8,155.1z"/>
		<path class="st6" d="M338.6,155.8c-0.9,0.7-2.3,1-3.7,1c-3.7,0-5.9-1.9-5.9-5.7v-6.5h-2.4v-3.5h2.4v-3.8h4.6v3.8h3.9v3.5h-3.9v6.4
			c0,1.4,0.7,2.1,2,2.1c0.7,0,1.4-0.2,1.9-0.6L338.6,155.8z"/>
		<path class="st6" d="M340.1,148.7c0-4.8,3.7-8.1,8.7-8.1c5,0,8.7,3.4,8.7,8.1c0,4.8-3.6,8.1-8.7,8.1
			C343.8,156.8,340.1,153.4,340.1,148.7z M352.9,148.7c0-2.7-1.7-4.4-4-4.4c-2.3,0-4.1,1.6-4.1,4.4c0,2.7,1.8,4.4,4.1,4.4
			C351.1,153.1,352.9,151.4,352.9,148.7z"/>
		<path class="st6" d="M396.8,147.5v9h-4.6v-8.3c0-2.6-1.1-3.7-3-3.7c-2.1,0-3.5,1.3-3.5,4.1v7.9h-4.6v-8.3c0-2.6-1.1-3.7-3-3.7
			c-2,0-3.5,1.3-3.5,4.1v7.9H370v-15.8h4.4v1.8c1.2-1.4,2.9-2.1,5-2.1c2.2,0,4.1,0.9,5.2,2.6c1.3-1.6,3.3-2.6,5.7-2.6
			C394,140.5,396.8,142.7,396.8,147.5z"/>
		<path class="st6" d="M417,150h-12c0.4,2,2.1,3.2,4.5,3.2c1.7,0,2.9-0.5,4-1.5l2.4,2.6c-1.5,1.7-3.7,2.6-6.5,2.6
			c-5.5,0-9-3.4-9-8.1c0-4.7,3.6-8.1,8.4-8.1c4.6,0,8.2,3.1,8.2,8.2C417.1,149.1,417.1,149.6,417,150z M405,147.3h7.8
			c-0.3-2-1.8-3.3-3.9-3.3C406.8,144,405.3,145.3,405,147.3z"/>
		<path class="st6" d="M434.3,147.6v9H430v-2c-0.9,1.4-2.5,2.2-4.8,2.2c-3.7,0-5.9-2.1-5.9-4.8c0-2.8,2-4.7,6.8-4.7h3.6
			c0-2-1.2-3.1-3.6-3.1c-1.7,0-3.4,0.6-4.6,1.5l-1.6-3.2c1.7-1.2,4.3-1.9,6.8-1.9C431.5,140.5,434.3,142.8,434.3,147.6z
			 M429.7,151.6V150h-3.1c-2.1,0-2.8,0.8-2.8,1.9c0,1.1,1,1.9,2.6,1.9C427.9,153.7,429.2,153,429.7,151.6z"/>
		<path class="st6" d="M437.5,155.1l1.5-3.3c1.4,0.9,3.6,1.5,5.5,1.5c2.1,0,2.9-0.6,2.9-1.4c0-2.6-9.5,0.1-9.5-6.3
			c0-3,2.7-5.1,7.3-5.1c2.2,0,4.6,0.5,6.1,1.4l-1.5,3.3c-1.6-0.9-3.1-1.2-4.6-1.2c-2.1,0-2.9,0.6-2.9,1.5c0,2.7,9.5,0.1,9.5,6.3
			c0,2.9-2.7,5-7.5,5C441.7,156.8,439,156.1,437.5,155.1z"/>
		<path class="st6" d="M471.2,140.8v15.8h-4.3v-1.9c-1.2,1.4-3,2.1-4.9,2.1c-4,0-6.8-2.2-6.8-7.1v-8.9h4.6v8.3
			c0,2.6,1.2,3.8,3.2,3.8c2.1,0,3.6-1.3,3.6-4.3v-7.8H471.2z"/>
		<path class="st6" d="M485.8,140.5v4.2c-0.4,0-0.7-0.1-1-0.1c-2.5,0-4.2,1.4-4.2,4.4v7.5H476v-15.8h4.4v2.1
			C481.5,141.3,483.4,140.5,485.8,140.5z"/>
		<path class="st6" d="M504.4,150h-12c0.4,2,2.1,3.2,4.5,3.2c1.7,0,2.9-0.5,4-1.5l2.4,2.6c-1.5,1.7-3.7,2.6-6.5,2.6
			c-5.5,0-9-3.4-9-8.1c0-4.7,3.6-8.1,8.4-8.1c4.6,0,8.2,3.1,8.2,8.2C504.5,149.1,504.4,149.6,504.4,150z M492.4,147.3h7.8
			c-0.3-2-1.8-3.3-3.9-3.3C494.2,144,492.7,145.3,492.4,147.3z"/>
		<path class="st6" d="M530.5,156.6l-4-5.7h-0.2h-4.1v5.7h-4.8V136h8.9c5.5,0,8.9,2.8,8.9,7.5c0,3.1-1.6,5.3-4.2,6.5l4.6,6.6H530.5z
			 M526,139.9h-3.9v7.2h3.9c2.9,0,4.4-1.3,4.4-3.6C530.4,141.2,528.9,139.9,526,139.9z"/>
		<path class="st6" d="M538.3,146.3c0-6.1,4.8-10.6,11.3-10.6c6.5,0,11.3,4.5,11.3,10.6s-4.8,10.6-11.3,10.6
			C543,156.9,538.3,152.4,538.3,146.3z M555.9,146.3c0-3.9-2.8-6.6-6.4-6.6c-3.7,0-6.4,2.7-6.4,6.6s2.8,6.6,6.4,6.6
			C553.2,152.9,555.9,150.2,555.9,146.3z"/>
		<path class="st6" d="M564.9,136h4.8v20.6h-4.8V136z"/>
	</g>
</g>
</svg>
