<?xml version="1.0" encoding="utf-8"?>
<!-- Generator: Adobe Illustrator 19.0.0, SVG Export Plug-In . SVG Version: 6.00 Build 0)  -->
<svg version="1.1" id="Layer_1" xmlns="http://www.w3.org/2000/svg" xmlns:xlink="http://www.w3.org/1999/xlink" x="0px" y="0px"
	 viewBox="0 0 568 115.5" style="enable-background:new 0 0 568 115.5;" xml:space="preserve">
<style type="text/css">
	.st0{fill:#FFFFFF;}
	.st1{fill-rule:evenodd;clip-rule:evenodd;fill:#FFFFFF;}
</style>
<g>
	<g>
		<path class="st0" d="M0,115.5V56.5c0-5.4,1.9-10,5.8-13.8c3.8-3.9,8.5-5.8,13.9-5.8h2.5c5.4,0,10,1.9,13.8,5.8
			c1.3,1.2,2.4,2.6,3.2,4h0.1l24.6,49.1l24.6-49.1h0.1c0.9-1.4,1.9-2.8,3.2-4c3.8-3.9,8.5-5.8,13.9-5.8h2.5c5.4,0,10,1.9,13.8,5.8
			c3.9,3.8,5.8,8.4,5.8,13.8v58.9h-19.6V66.3c0-1.3-0.5-2.5-1.5-3.5c-0.7-0.7-1.4-1.1-2.2-1.3c-0.7,0.2-1.3,0.4-1.8,0.8l-26.5,53
			H51.6L25,62.4c-0.5-0.4-1.1-0.7-1.7-0.8c-0.9,0.2-1.6,0.6-2.3,1.3c-0.9,1-1.4,2.1-1.4,3.5v49.1H0z"/>
		<path class="st0" d="M137.5,115.5l34.4-68.8h0.1c0.9-1.4,1.9-2.8,3.2-4c3.8-3.9,8.5-5.8,13.9-5.8h4.9c5.4,0,10,1.9,13.8,5.8
			c1.3,1.2,2.3,2.6,3.2,4h0.2l34.4,68.8H221l-7.4-14.7h-44.2l-7.4,14.7H137.5z M206.3,86l-12.8-25.6c-0.6-0.5-1.3-0.9-1.9-1.3
			c-0.7,0.4-1.4,0.8-2,1.3L176.8,86H206.3z"/>
		<path class="st0" d="M255.4,115.5V36.9H334c5.4,0,10,1.9,13.8,5.8c3.9,3.8,5.8,8.4,5.8,13.8v39.3c0,5.5-1.9,10.1-5.8,13.9
			c-3.8,3.8-8.4,5.8-13.8,5.8H255.4z M324.2,95.8c2.7,0,5-0.9,6.9-2.8c1.9-1.9,2.9-4.3,2.9-7V66.3c0-2.7-1-5-2.9-6.9
			c-1.9-1.9-4.2-2.9-6.9-2.9h-49.1v39.3H324.2z"/>
		<path class="st0" d="M388,115.5c-5.5,0-10.1-1.9-13.9-5.8c-3.8-3.8-5.8-8.5-5.8-13.9V36.9H388V86c0,2.7,0.9,5,2.8,7
			c1.9,1.9,4.3,2.8,7,2.8h58.9v19.6H388z"/>
	</g>
	<path class="st1" d="M530.7,28.4c4-0.1,8,0.1,12,1.3c7.5,2.3,12.5,7.3,14.7,14.8c1.2,4.2,0.7,8.4-0.5,12.5c-2.1,7-5.9,13-10.5,18.6
		c-10.6,13-23.5,23.2-38.1,31.4c-4.8,2.7-9.7,5.1-15,6.7c-2.4,0.7-5,1.3-7.5,1.4c-5.3,0.3-9-2.2-11.3-6.9c-1.8-3.6-2.5-7.5-3-11.4
		c-0.2-1.3-0.3-2.6-0.4-3.9c-0.1-0.7,0.1-1.1,0.9-1c7.4,0.4,14.3-1.5,20.9-4.4c12-5.2,22.2-12.8,31.1-22.3c4-4.2,7.5-8.8,9.9-14.1
		c1.3-2.8,2.3-5.8,2.3-8.9c-1.1-23.1-39.2-3.7-38.3-4.3c5.1-3.3,10.6-5.8,16.4-7.4C519.7,29,525.1,28.2,530.7,28.4z"/>
	<polygon class="st1" points="476.3,57.7 529.9,115.4 568,115.4 	"/>
	<polygon class="st1" points="409,0 439.1,70.2 454.5,41.5 487.5,27.8 	"/>
</g>
</svg>
